<svg width="145" height="32" viewBox="0 0 145 32" fill="none" xmlns="http://www.w3.org/2000/svg">
<path fill-rule="evenodd" clip-rule="evenodd" d="M5.29284 8.05285C7.72286 4.78427 11.6141 2.66665 16 2.66665C20.4116 2.66665 24.3227 4.80925 26.7497 8.11062C26.6465 8.21686 26.5524 8.32694 26.4673 8.43689C26.0226 9.0126 25.6882 9.75418 25.4202 10.5072C24.8805 12.0218 24.4688 14.0001 24.0877 15.8527L24.0539 16.0193C23.6736 17.8684 23.3202 19.5882 22.8928 20.8648C22.7008 21.4383 22.5187 21.8438 22.3573 22.1035C22.1888 21.8418 21.9976 21.4313 21.7953 20.8495C21.3382 19.5363 20.9538 17.75 20.5463 15.8426L20.5331 15.7802C20.1415 13.9481 19.726 12.0042 19.2081 10.5163C18.9479 9.76884 18.6286 9.03469 18.211 8.46431C17.8012 7.90454 17.119 7.27279 16.1212 7.27279C15.1297 7.27279 14.4444 7.89768 14.0286 8.45118C13.603 9.01785 13.2711 9.74897 12.9977 10.4968C12.4472 12.0027 11.9971 13.9725 11.5782 15.8276L11.5349 16.0193C11.1201 17.8569 10.7324 19.575 10.2922 20.8541C10.1242 21.3426 9.96563 21.7142 9.8221 21.9797C9.68184 21.7154 9.52725 21.3463 9.36378 20.8619C8.9415 19.6101 8.57158 17.9401 8.17429 16.1465L8.10475 15.8326C7.69309 13.9764 7.24649 12.003 6.68812 10.4924C6.41069 9.74175 6.07137 9.00699 5.63225 8.43764C5.53282 8.30877 5.41981 8.17796 5.29284 8.05285ZM3.82212 10.5626C3.93786 10.7911 4.06028 11.0744 4.18688 11.4169C4.67018 12.7244 5.07966 14.5086 5.50132 16.41L5.58336 16.7804C5.96728 18.5153 6.36664 20.32 6.83702 21.7142C7.0872 22.4557 7.38931 23.182 7.7779 23.7465C8.14534 24.2804 8.80454 24.9699 9.81818 24.9699C10.8289 24.9699 11.4897 24.2837 11.8596 23.7523C12.2515 23.1891 12.5586 22.4636 12.8138 21.7216C13.3031 20.2998 13.7197 18.4528 14.1184 16.6853L14.1794 16.415C14.609 14.5125 15.0225 12.7247 15.5023 11.4124C15.7246 10.8044 15.9327 10.3809 16.1138 10.1181C16.2855 10.3786 16.4817 10.7954 16.6897 11.393C17.1468 12.7063 17.5309 14.4926 17.9385 16.3999L17.9519 16.4624C18.3434 18.2945 18.7588 20.2384 19.2768 21.7261C19.537 22.4739 19.8563 23.208 20.2738 23.7783C20.6838 24.3382 21.3659 24.9699 22.3635 24.9699C23.3664 24.9699 24.046 24.3324 24.4511 23.7675C24.8623 23.1944 25.1716 22.4578 25.4214 21.7113C25.9016 20.2774 26.2836 18.4168 26.6473 16.6469L26.6998 16.3899C27.0916 14.4849 27.4678 12.7056 27.9323 11.402C28.033 11.1184 28.1321 10.8766 28.2267 10.6735C28.9385 12.3049 29.3333 14.1064 29.3333 16C29.3333 23.3637 23.3639 29.3335 16 29.3335C8.6362 29.3335 2.66665 23.3637 2.66665 16C2.66665 14.0634 3.07956 12.2231 3.82212 10.5626ZM16 0C7.16346 0 0 7.16346 0 16C0 24.8365 7.16346 32 16 32C24.8367 32 31.9998 24.8365 31.9998 16C31.9998 7.16346 24.8367 0 16 0ZM16.3029 9.89659C16.3042 9.89564 16.3048 9.89506 16.3048 9.8949C16.3048 9.89457 16.3017 9.89638 16.2955 9.90134C16.2989 9.89935 16.3013 9.89774 16.3029 9.89659ZM15.9362 9.89671C15.9301 9.89291 15.927 9.89031 15.927 9.88998C15.927 9.88965 15.9301 9.89155 15.9362 9.89671ZM22.1607 22.3566C22.1607 22.3566 22.1636 22.3538 22.1694 22.35C22.1636 22.355 22.1607 22.3571 22.1607 22.3566ZM22.5484 22.3459C22.5546 22.3496 22.5579 22.3521 22.5579 22.3525C22.5579 22.3529 22.5546 22.3509 22.5484 22.3459ZM9.54492 22.3806C9.54488 22.3802 9.54872 22.3765 9.5564 22.3711C9.5488 22.3781 9.54492 22.381 9.54492 22.3806ZM10.085 22.3736C10.0926 22.3789 10.0964 22.3827 10.0964 22.3831C10.0964 22.3835 10.0925 22.381 10.085 22.3736Z" fill="#FF8F50"/>
<path d="M40.8346 25.4722L36.9546 12.2002H40.3532L42.6543 21.7528L45.3299 12.2002H49.1295L51.8055 21.7528L54.1334 12.2002H57.5316L53.6251 25.4722H50.0663L47.2297 15.545L44.3935 25.4722H40.8346Z" fill="#622F60"/>
<path d="M62.5182 25.7932C61.3766 25.7932 60.4401 25.6144 59.7088 25.2577C58.9776 24.8832 58.4334 24.3926 58.0766 23.7861C57.7199 23.1795 57.5415 22.5106 57.5415 21.7794C57.5415 20.5485 58.023 19.5495 58.9863 18.7824C59.9496 18.0154 61.3947 17.6318 63.3213 17.6318H66.6927V17.3107C66.6927 16.401 66.4338 15.732 65.9168 15.3039C65.3995 14.8758 64.757 14.6617 63.9902 14.6617C63.2945 14.6617 62.6879 14.8312 62.1706 15.1701C61.6532 15.4912 61.332 15.9728 61.2073 16.615H57.8623C57.9519 15.6518 58.2728 14.8133 58.8256 14.0998C59.3967 13.3863 60.1279 12.8422 61.0198 12.4676C61.9121 12.0751 62.9109 11.8789 64.0167 11.8789C65.9078 11.8789 67.3971 12.3516 68.4855 13.2971C69.5735 14.2425 70.1177 15.5804 70.1177 17.3107V25.472H67.201L66.8801 23.3315C66.4875 24.045 65.9346 24.6334 65.2211 25.0975C64.5253 25.5612 63.6244 25.7932 62.5182 25.7932ZM63.2945 23.1172C64.2755 23.1172 65.0336 22.7959 65.5688 22.1539C66.1216 21.5118 66.4697 20.7178 66.6126 19.7725H63.6958C62.7858 19.7725 62.1351 19.942 61.7424 20.2809C61.3501 20.602 61.1536 21.0035 61.1536 21.485C61.1536 22.0023 61.3501 22.4037 61.7424 22.689C62.1351 22.9743 62.652 23.1172 63.2945 23.1172Z" fill="#622F60"/>
<path d="M75.5094 25.4722L70.6396 12.2002H74.2249L77.5967 22.2346L80.968 12.2002H84.5537L79.657 25.4722H75.5094Z" fill="#622F60"/>
<path d="M91.439 25.7932C90.1012 25.7932 88.9149 25.5075 87.8802 24.9368C86.8458 24.3658 86.0341 23.5631 85.4453 22.5284C84.8565 21.4941 84.5625 20.2987 84.5625 18.943C84.5625 17.5694 84.8478 16.3475 85.4184 15.2771C86.0072 14.2068 86.8099 13.3773 87.8269 12.7887C88.8612 12.1821 90.0743 11.8789 91.4658 11.8789C92.7681 11.8789 93.9189 12.1643 94.9177 12.7351C95.9165 13.306 96.6928 14.0909 97.2456 15.0898C97.8163 16.0709 98.102 17.168 98.102 18.3811C98.102 18.5773 98.0929 18.7824 98.0752 18.9965C98.0752 19.2106 98.0661 19.4335 98.0483 19.6654H87.9607C88.0321 20.7 88.3889 21.5118 89.0309 22.1006C89.6908 22.689 90.4848 22.9834 91.4126 22.9834C92.1079 22.9834 92.688 22.8319 93.1517 22.5284C93.6332 22.2076 93.9899 21.7971 94.222 21.2975H97.7007C97.4509 22.1361 97.0313 22.9033 96.443 23.599C95.8719 24.2766 95.1584 24.8117 94.3021 25.2044C93.4639 25.5967 92.5092 25.7932 91.439 25.7932ZM91.4658 14.6617C90.6276 14.6617 89.8873 14.9026 89.2448 15.3842C88.6028 15.848 88.1923 16.5615 88.014 17.5248H94.6233C94.5696 16.6507 94.2488 15.955 93.66 15.4377C93.0712 14.9204 92.3399 14.6617 91.4658 14.6617Z" fill="#622F60"/>
<path d="M99.9121 25.4728V6.20703H103.337V25.4728H99.9121Z" fill="#622F60"/>
<path d="M112.215 25.7932C110.877 25.7932 109.691 25.5075 108.656 24.9368C107.622 24.3658 106.81 23.5631 106.221 22.5284C105.632 21.4941 105.338 20.2987 105.338 18.943C105.338 17.5694 105.624 16.3475 106.194 15.2771C106.783 14.2068 107.586 13.3773 108.603 12.7887C109.638 12.1821 110.85 11.8789 112.242 11.8789C113.544 11.8789 114.695 12.1643 115.694 12.7351C116.692 13.306 117.469 14.0909 118.022 15.0898C118.592 16.0709 118.878 17.168 118.878 18.3811C118.878 18.5773 118.869 18.7824 118.851 18.9965C118.851 19.2106 118.842 19.4335 118.824 19.6654H108.737C108.808 20.7 109.165 21.5118 109.807 22.1006C110.467 22.689 111.261 22.9834 112.188 22.9834C112.884 22.9834 113.464 22.8319 113.928 22.5284C114.409 22.2076 114.766 21.7971 114.998 21.2975H118.477C118.227 22.1361 117.807 22.9033 117.219 23.599C116.648 24.2766 115.934 24.8117 115.078 25.2044C114.24 25.5967 113.286 25.7932 112.215 25.7932ZM112.242 14.6617C111.404 14.6617 110.663 14.9026 110.021 15.3842C109.379 15.848 108.968 16.5615 108.79 17.5248H115.399C115.345 16.6507 115.025 15.955 114.436 15.4377C113.847 14.9204 113.116 14.6617 112.242 14.6617Z" fill="#622F60"/>
<path d="M126.173 25.7932C124.996 25.7932 123.961 25.6058 123.07 25.2312C122.177 24.8386 121.464 24.3035 120.929 23.6255C120.394 22.9479 120.073 22.163 119.965 21.2711H123.417C123.524 21.788 123.81 22.2344 124.274 22.6089C124.755 22.9656 125.371 23.144 126.12 23.144C126.869 23.144 127.413 22.9925 127.752 22.689C128.109 22.3859 128.287 22.0379 128.287 21.6456C128.287 21.0746 128.038 20.691 127.538 20.495C127.038 20.2809 126.343 20.0757 125.451 19.8795C124.88 19.7546 124.3 19.603 123.712 19.4246C123.123 19.2463 122.579 19.0232 122.079 18.7557C121.598 18.4702 121.205 18.1135 120.902 17.6854C120.599 17.2394 120.447 16.6953 120.447 16.0531C120.447 14.8758 120.911 13.8857 121.839 13.083C122.784 12.2802 124.104 11.8789 125.799 11.8789C127.369 11.8789 128.617 12.2446 129.545 12.9759C130.49 13.7074 131.052 14.7152 131.231 15.9996H127.993C127.796 15.0185 127.056 14.5279 125.772 14.5279C125.13 14.5279 124.63 14.6528 124.274 14.9026C123.935 15.1523 123.765 15.4644 123.765 15.8391C123.765 16.2315 124.024 16.5437 124.541 16.7756C125.058 17.0075 125.745 17.2215 126.602 17.4178C127.529 17.6318 128.376 17.8727 129.143 18.1403C129.928 18.39 130.553 18.7735 131.017 19.2908C131.48 19.7903 131.712 20.5128 131.712 21.4581C131.73 22.279 131.516 23.0189 131.07 23.6791C130.624 24.339 129.982 24.8563 129.143 25.2312C128.305 25.6058 127.315 25.7932 126.173 25.7932Z" fill="#622F60"/>
<path d="M139.161 25.7932C137.984 25.7932 136.949 25.6058 136.057 25.2312C135.166 24.8386 134.452 24.3035 133.917 23.6255C133.382 22.9479 133.061 22.163 132.954 21.2711H136.405C136.512 21.788 136.798 22.2344 137.261 22.6089C137.743 22.9656 138.359 23.144 139.108 23.144C139.857 23.144 140.401 22.9925 140.74 22.689C141.097 22.3859 141.275 22.0379 141.275 21.6456C141.275 21.0746 141.025 20.691 140.526 20.495C140.027 20.2809 139.331 20.0757 138.439 19.8795C137.868 19.7546 137.288 19.603 136.699 19.4246C136.111 19.2463 135.567 19.0232 135.067 18.7557C134.586 18.4702 134.193 18.1135 133.89 17.6854C133.587 17.2394 133.435 16.6953 133.435 16.0531C133.435 14.8758 133.899 13.8857 134.827 13.083C135.772 12.2802 137.092 11.8789 138.787 11.8789C140.357 11.8789 141.605 12.2446 142.533 12.9759C143.478 13.7074 144.04 14.7152 144.218 15.9996H140.981C140.785 15.0185 140.044 14.5279 138.76 14.5279C138.118 14.5279 137.618 14.6528 137.261 14.9026C136.922 15.1523 136.753 15.4644 136.753 15.8391C136.753 16.2315 137.012 16.5437 137.529 16.7756C138.046 17.0075 138.733 17.2215 139.589 17.4178C140.517 17.6318 141.364 17.8727 142.132 18.1403C142.917 18.39 143.541 18.7735 144.005 19.2908C144.468 19.7903 144.7 20.5128 144.7 21.4581C144.718 22.279 144.504 23.0189 144.058 23.6791C143.612 24.339 142.97 24.8563 142.132 25.2312C141.293 25.6058 140.303 25.7932 139.161 25.7932Z" fill="#622F60"/>
</svg>
